<?xml version="1.0" encoding="utf-8"?><!-- Uploaded to: SVG Repo, www.svgrepo.com, Generator: SVG Repo Mixer Tools -->
<svg width="800px" height="800px" viewBox="0 0 128 128" xmlns="http://www.w3.org/2000/svg" xmlns:xlink="http://www.w3.org/1999/xlink" aria-hidden="true" role="img" class="iconify iconify--noto" preserveAspectRatio="xMidYMid meet"><path fill="#6aa5ad" d="M60.7 100.2l-.28-39.55l5.14.28l.29 41.41z"></path><path d="M48.94 107.67c-3.02-.15-4.56 2.13-4.17 6.4s2.9 10.74 11.64 10.57c10.09-.19 10.85-7.21 10.69-14.97c-.11-5.4 0-9.68-.29-9.87s-7.29-.38-7.68.01c-.39.39-.1 8.83-.19 10.86s.26 6.12-3.49 6.01c-2.91-.08-3.3-2.52-3.3-3.69s.67-5.13-3.21-5.32z" fill="#3f7377"></path><path d="M53.24 44.47l9.62-17.32S43.88 24.8 27.03 37.89C5.6 54.53 9 72.78 9 72.78S17.16 65 23.84 65.6s15.05 8.67 15.05 8.67l14.35-29.8z" fill="#937ef3"></path><path d="M65.19 32.46l-1.38-5.31s19.28-.21 33.63 9.2C122.13 52.53 119.4 70.6 119.4 70.6s-5.36-7.46-17.12-6.93S86.2 74.7 86.2 74.7L65.19 32.46z" fill="#5547f4"></path><radialGradient id="IconifyId17ecdb2904d178eab21240" cx="83.836" cy="1.342" r="27.23" gradientUnits="userSpaceOnUse"><stop offset=".517" stop-color="#71d3ff"></stop><stop offset=".581" stop-color="#6cd2fe"></stop><stop offset=".658" stop-color="#5dcefa"></stop><stop offset=".743" stop-color="#44c8f4"></stop><stop offset=".833" stop-color="#22c0eb"></stop><stop offset=".907" stop-color="#00b7e2"></stop></radialGradient><path d="M84.12 1.12c-1.2.07-2.37 3.37-4.14 7.23s-5.02 7.67-3.42 13.3c2.18 7.66 14.9 7.61 15.23-2.71c.11-3.54-3.03-8.55-4.03-10.98c-1-2.43-2.21-6.92-3.64-6.84z" fill="url(#IconifyId17ecdb2904d178eab21240)"></path><path d="M80.6 14.11c-1.44.11-2.71 2.38-2.21 5.72s2.84 4.2 3.92 3.7c1.31-.61.38-2.61.04-4.78s.39-4.81-1.75-4.64z" fill="#ace8fe"></path><radialGradient id="IconifyId17ecdb2904d178eab21241" cx="101.605" cy="26.594" r="23.561" gradientUnits="userSpaceOnUse"><stop offset=".61" stop-color="#71d3ff"></stop><stop offset=".663" stop-color="#6cd2fe"></stop><stop offset=".727" stop-color="#5dcefa"></stop><stop offset=".798" stop-color="#44c8f4"></stop><stop offset=".872" stop-color="#22c0eb"></stop><stop offset=".934" stop-color="#00b7e2"></stop></radialGradient><path d="M101.73 25.96c-1.14-.07-1.18 2.63-4.51 8.1c-2.21 3.62-4.19 7.73-3.02 11.81c2.27 7.9 15.04 7.55 15.37-2.76c.11-3.54-2.01-6.41-3.76-9.73c-1.23-2.31-3.16-7.36-4.08-7.42z" fill="url(#IconifyId17ecdb2904d178eab21241)"></path><path d="M98.65 38.46c-1.27-.43-3.07 1.78-2.91 5.09c.16 3.29 2.54 5.12 3.89 4.11c1.26-.95-.28-3.66-.28-5.34c-.01-1.68.59-3.42-.7-3.86z" fill="#ace8fe"></path><radialGradient id="IconifyId17ecdb2904d178eab21242" cx="22.597" cy="28.469" r="23.781" gradientUnits="userSpaceOnUse"><stop offset=".669" stop-color="#71d3ff"></stop><stop offset=".718" stop-color="#6cd2fe"></stop><stop offset=".776" stop-color="#5dcefa"></stop><stop offset=".84" stop-color="#44c8f4"></stop><stop offset=".907" stop-color="#22c0eb"></stop><stop offset=".964" stop-color="#00b7e2"></stop></radialGradient><path d="M22.75 28.56c-1.01-.04-2.18 3.17-3.95 7.03s-5.02 6.19-3.87 12.37c1.51 8.1 15.38 8.51 15.71-1.8c.11-3.54-2.8-8.29-3.98-10.63c-1.44-2.88-3.02-6.93-3.91-6.97z" fill="url(#IconifyId17ecdb2904d178eab21242)"></path><path d="M18.43 41.6c-2.03-.03-2.33 4.16-1.76 5.97c.56 1.78 1.4 3.31 3.12 2.92c1.69-.39.56-3.2.27-4.8c-.29-1.61-.01-4.06-1.63-4.09z" fill="#ace8fe"></path><radialGradient id="IconifyId17ecdb2904d178eab21243" cx="41.169" cy="1.16" r="25.539" gradientUnits="userSpaceOnUse"><stop offset=".665" stop-color="#71d3ff"></stop><stop offset=".709" stop-color="#6cd2fe"></stop><stop offset=".763" stop-color="#5dcefa"></stop><stop offset=".821" stop-color="#44c8f4"></stop><stop offset=".883" stop-color="#22c0eb"></stop><stop offset=".934" stop-color="#00b7e2"></stop></radialGradient><path d="M41.86 1.85c-1.14-.1-1.97 2.7-2.39 3.65c-1 2.22-5.9 8.33-5.78 14.02c.13 6.35 5.17 8.03 8.38 7.91c3.43-.12 8.32-2.23 7.34-8.92c-.38-2.57-1.85-5.51-3.16-8.44c-1.95-4.39-2.7-8.07-4.39-8.22z" fill="url(#IconifyId17ecdb2904d178eab21243)"></path><path d="M38.54 14.73c-1.51-.43-2.83 2.35-2.51 5.36c.3 2.88 1.77 4.62 3.01 4.25c2.62-.78.64-3.35.57-5.46c-.06-1.87.27-3.77-1.07-4.15z" fill="#ace8fe"></path><path d="M86.25 73.94s-1.07-17.66-5.17-26.74C73.6 30.63 63.3 27.42 63.3 27.42s-12.4 6.09-18.91 21.12s-5.4 25.64-5.4 25.64s10.03-11.46 24.63-9.88c14.6 1.57 22.63 9.64 22.63 9.64z" fill="#6e62ed"></path><path d="M59.7 27.86c-.13-.51-.02-7.3-.06-8.76c-.06-2.16 1.77-3.54 3.43-3.49c2.16.06 2.92 1.97 2.98 3.3s.07 8.79.06 8.88c-.08.78-1.22 1.52-3.24 1.52c-1.46.02-3-.75-3.17-1.45z" fill="#6ca4ab"></path><path d="M86.18 76.22c1.52-.09 7.56-10.49 17.06-10.4c12.89.13 14.54 6.82 15.89 6.14c1.49-.76-.7-3.54-2.65-5.55c-2.75-2.84-7.16-4.56-14-4.12c-9.96.65-16.39 9.49-16.39 9.49s-8.5-9.27-23.39-9.27C48.29 62.51 39 72.75 39 72.75s-4.71-8.33-16.17-8.53c-10.13-.18-14.51 7.98-13.8 8.69c.71.71 6.11-5.76 13.67-5.43c10.4.44 14.04 9.13 16.03 9.18c1.99.05 9.75-10.43 24.15-10.18c15.46.27 21.88 9.83 23.3 9.74z" fill="#004dae"></path><radialGradient id="IconifyId17ecdb2904d178eab21244" cx="62.792" cy="34.798" r="23.038" gradientUnits="userSpaceOnUse"><stop offset=".517" stop-color="#71d3ff"></stop><stop offset=".581" stop-color="#6cd2fe"></stop><stop offset=".658" stop-color="#5dcefa"></stop><stop offset=".743" stop-color="#44c8f4"></stop><stop offset=".833" stop-color="#22c0eb"></stop><stop offset=".907" stop-color="#00b7e2"></stop></radialGradient><path d="M63.16 33.82c-.94.02-2.37 3.37-4.14 7.23s-5.43 8.06-3.31 13.51c2.48 6.35 14.46 6.63 15.01-3.27c.2-3.54-2.87-8.23-3.92-10.63c-1.76-4.01-2.79-6.86-3.64-6.84z" fill="url(#IconifyId17ecdb2904d178eab21244)"></path><path d="M58.48 48.04c-1.35-.1-2.29 2.44-1.55 5c.75 2.6 2.31 3.66 3.6 3.15c1.65-.65.3-2.55-.05-4.25c-.35-1.7.05-3.75-2-3.9z" fill="#ace8fe"></path></svg>